<svg width="672" height="612" viewBox="0 0 672 612" fill="none" xmlns="http://www.w3.org/2000/svg">
<rect width="639.873" height="609" rx="20" fill="black" fill-opacity="0.95"/>
<rect x="55.4557" y="52.78" width="528.962" height="503.44" rx="9" fill="black" fill-opacity="0.95"/>
<rect x="63.9873" y="60.9" width="511.899" height="487.2" rx="9" fill="#1B1F26" fill-opacity="0.72"/>
<path d="M56.5125 26.6177H57.7739L60.7398 33.8621H60.8421L63.808 26.6177H65.0693V35.345H64.0807V28.7143H63.9955L61.2682 35.345H60.3136L57.5864 28.7143H57.5011V35.345H56.5125V26.6177ZM67.1883 35.345V26.6177H70.1372C70.819 26.6177 71.3786 26.7342 71.8161 26.9672C72.2536 27.1973 72.5775 27.514 72.7877 27.9175C72.998 28.3209 73.1031 28.7797 73.1031 29.2939C73.1031 29.8081 72.998 30.264 72.7877 30.6618C72.5775 31.0595 72.2551 31.372 71.8204 31.5993C71.3857 31.8237 70.8303 31.9359 70.1542 31.9359H67.7678V30.9814H70.1201C70.586 30.9814 70.961 30.9132 71.2451 30.7768C71.532 30.6405 71.7394 30.4473 71.8673 30.1973C71.998 29.9444 72.0633 29.6433 72.0633 29.2939C72.0633 28.9444 71.998 28.639 71.8673 28.3777C71.7366 28.1163 71.5278 27.9146 71.2408 27.7726C70.9539 27.6277 70.5747 27.5552 70.1031 27.5552H68.2451V35.345H67.1883ZM71.2962 31.4246L73.444 35.345H72.2167L70.1031 31.4246H71.2962ZM81.8868 29.345H80.83C80.7675 29.041 80.6581 28.774 80.5019 28.5439C80.3484 28.3138 80.1609 28.1206 79.9394 27.9643C79.7206 27.8052 79.4777 27.6859 79.2107 27.6064C78.9436 27.5268 78.6652 27.4871 78.3754 27.4871C77.847 27.4871 77.3683 27.6206 76.9394 27.8876C76.5132 28.1547 76.1737 28.5481 75.9209 29.068C75.6709 29.5879 75.5459 30.2257 75.5459 30.9814C75.5459 31.7371 75.6709 32.3748 75.9209 32.8947C76.1737 33.4146 76.5132 33.8081 76.9394 34.0751C77.3683 34.3422 77.847 34.4757 78.3754 34.4757C78.6652 34.4757 78.9436 34.4359 79.2107 34.3564C79.4777 34.2768 79.7206 34.1589 79.9394 34.0027C80.1609 33.8436 80.3484 33.649 80.5019 33.4189C80.6581 33.1859 80.7675 32.9189 80.83 32.6177H81.8868C81.8073 33.0638 81.6624 33.4629 81.4521 33.8152C81.2419 34.1675 80.9806 34.4672 80.6681 34.7143C80.3556 34.9586 80.0047 35.1447 79.6155 35.2726C79.2291 35.4004 78.8158 35.4643 78.3754 35.4643C77.6311 35.4643 76.9692 35.2825 76.3896 34.9189C75.8101 34.5552 75.3541 34.0382 75.0217 33.3677C74.6894 32.6973 74.5232 31.9018 74.5232 30.9814C74.5232 30.0609 74.6894 29.2655 75.0217 28.595C75.3541 27.9246 75.8101 27.4075 76.3896 27.0439C76.9692 26.6802 77.6311 26.4984 78.3754 26.4984C78.8158 26.4984 79.2291 26.5623 79.6155 26.6902C80.0047 26.818 80.3556 27.0055 80.6681 27.2527C80.9806 27.497 81.2419 27.7953 81.4521 28.1476C81.6624 28.497 81.8073 28.8961 81.8868 29.345ZM89.748 28.7996V29.6518H86.2195V28.7996H89.748ZM87.2764 35.345V27.8961C87.2764 27.5211 87.3644 27.2086 87.5406 26.9586C87.7167 26.7086 87.9454 26.5211 88.2266 26.3961C88.5079 26.2711 88.8048 26.2086 89.1173 26.2086C89.3644 26.2086 89.5661 26.2285 89.7224 26.2683C89.8786 26.3081 89.9951 26.345 90.0718 26.3791L89.782 27.2484C89.7309 27.2314 89.6599 27.2101 89.569 27.1845C89.4809 27.1589 89.3644 27.1461 89.2195 27.1461C88.8872 27.1461 88.6471 27.23 88.4994 27.3976C88.3545 27.5652 88.282 27.8109 88.282 28.1348V35.345H87.2764ZM93.547 35.4814C92.956 35.4814 92.4376 35.3407 91.9916 35.0595C91.5484 34.7782 91.2018 34.3848 90.9518 33.8791C90.7046 33.3734 90.581 32.7825 90.581 32.1064C90.581 31.4246 90.7046 30.8294 90.9518 30.3209C91.2018 29.8123 91.5484 29.4175 91.9916 29.1362C92.4376 28.855 92.956 28.7143 93.547 28.7143C94.1379 28.7143 94.6549 28.855 95.0981 29.1362C95.5441 29.4175 95.8907 29.8123 96.1379 30.3209C96.3879 30.8294 96.5129 31.4246 96.5129 32.1064C96.5129 32.7825 96.3879 33.3734 96.1379 33.8791C95.8907 34.3848 95.5441 34.7782 95.0981 35.0595C94.6549 35.3407 94.1379 35.4814 93.547 35.4814ZM93.547 34.578C93.9958 34.578 94.3651 34.4629 94.6549 34.2328C94.9447 34.0027 95.1592 33.7001 95.2984 33.3251C95.4376 32.9501 95.5072 32.5439 95.5072 32.1064C95.5072 31.6689 95.4376 31.2612 95.2984 30.8834C95.1592 30.5055 94.9447 30.2001 94.6549 29.9672C94.3651 29.7342 93.9958 29.6177 93.547 29.6177C93.0981 29.6177 92.7288 29.7342 92.439 29.9672C92.1492 30.2001 91.9347 30.5055 91.7955 30.8834C91.6563 31.2612 91.5867 31.6689 91.5867 32.1064C91.5867 32.5439 91.6563 32.9501 91.7955 33.3251C91.9347 33.7001 92.1492 34.0027 92.439 34.2328C92.7288 34.4629 93.0981 34.578 93.547 34.578ZM98.048 35.345V28.7996H99.0196V29.7882H99.0878C99.2071 29.4643 99.423 29.2015 99.7355 28.9998C100.048 28.7981 100.4 28.6973 100.792 28.6973C100.866 28.6973 100.959 28.6987 101.069 28.7015C101.18 28.7044 101.264 28.7086 101.321 28.7143V29.7371C101.287 29.7285 101.209 29.7157 101.086 29.6987C100.967 29.6788 100.841 29.6689 100.707 29.6689C100.389 29.6689 100.105 29.7356 99.8548 29.8692C99.6077 29.9998 99.4117 30.1817 99.2668 30.4146C99.1247 30.6447 99.0537 30.9075 99.0537 31.203V35.345H98.048ZM107.081 26.6177V35.345H106.024V26.6177H107.081ZM109.558 26.6177L112.149 33.9643H112.251L114.842 26.6177H115.95L112.745 35.345H111.655L108.45 26.6177H109.558ZM116.917 35.345H115.809L119.014 26.6177H120.105L123.309 35.345H122.201L119.593 27.9984H119.525L116.917 35.345ZM117.326 31.9359H121.792V32.8734H117.326V31.9359ZM131.622 30.9814C131.622 31.9018 131.456 32.6973 131.124 33.3677C130.791 34.0382 130.335 34.5552 129.756 34.9189C129.176 35.2825 128.514 35.4643 127.77 35.4643C127.026 35.4643 126.364 35.2825 125.784 34.9189C125.205 34.5552 124.749 34.0382 124.416 33.3677C124.084 32.6973 123.918 31.9018 123.918 30.9814C123.918 30.0609 124.084 29.2655 124.416 28.595C124.749 27.9246 125.205 27.4075 125.784 27.0439C126.364 26.6802 127.026 26.4984 127.77 26.4984C128.514 26.4984 129.176 26.6802 129.756 27.0439C130.335 27.4075 130.791 27.9246 131.124 28.595C131.456 29.2655 131.622 30.0609 131.622 30.9814ZM130.6 30.9814C130.6 30.2257 130.473 29.5879 130.22 29.068C129.97 28.5481 129.631 28.1547 129.202 27.8876C128.776 27.6206 128.298 27.4871 127.77 27.4871C127.242 27.4871 126.763 27.6206 126.334 27.8876C125.908 28.1547 125.568 28.5481 125.315 29.068C125.065 29.5879 124.94 30.2257 124.94 30.9814C124.94 31.7371 125.065 32.3748 125.315 32.8947C125.568 33.4146 125.908 33.8081 126.334 34.0751C126.763 34.3422 127.242 34.4757 127.77 34.4757C128.298 34.4757 128.776 34.3422 129.202 34.0751C129.631 33.8081 129.97 33.4146 130.22 32.8947C130.473 32.3748 130.6 31.7371 130.6 30.9814Z" fill="white"/>
<path d="M18.1297 23.345H20.2627V19.285H24.5285V17.255H20.2627V13.195H18.1297V17.255H13.8639V19.285H18.1297V23.345ZM19.1962 28.42C17.7209 28.42 16.3345 28.1578 15.037 27.6334C13.7395 27.0921 12.6108 26.3646 11.651 25.4511C10.6912 24.5376 9.92693 23.4634 9.35815 22.2285C8.80715 20.9936 8.53165 19.6741 8.53165 18.27C8.53165 16.8659 8.80715 15.5464 9.35815 14.3115C9.92693 13.0766 10.6912 12.0024 11.651 11.0889C12.6108 10.1754 13.7395 9.45642 15.037 8.932C16.3345 8.39067 17.7209 8.12 19.1962 8.12C20.6715 8.12 22.0579 8.39067 23.3554 8.932C24.6529 9.45642 25.7816 10.1754 26.7414 11.0889C27.7012 12.0024 28.4566 13.0766 29.0076 14.3115C29.5764 15.5464 29.8608 16.8659 29.8608 18.27C29.8608 19.6741 29.5764 20.9936 29.0076 22.2285C28.4566 23.4634 27.7012 24.5376 26.7414 25.4511C25.7816 26.3646 24.6529 27.0921 23.3554 27.6334C22.0579 28.1578 20.6715 28.42 19.1962 28.42ZM19.1962 26.39C21.578 26.39 23.5953 25.6034 25.2483 24.0301C26.9013 22.4569 27.7278 20.5368 27.7278 18.27C27.7278 16.0032 26.9013 14.0831 25.2483 12.5099C23.5953 10.9366 21.578 10.15 19.1962 10.15C16.8145 10.15 14.7971 10.9366 13.1441 12.5099C11.4911 14.0831 10.6646 16.0032 10.6646 18.27C10.6646 20.5368 11.4911 22.4569 13.1441 24.0301C14.7971 25.6034 16.8145 26.39 19.1962 26.39Z" fill="#79747E"/>
<path d="M618.544 23.345H620.677V19.285H624.943V17.255H620.677V13.195H618.544V17.255H614.278V19.285H618.544V23.345ZM619.611 28.42C618.135 28.42 616.749 28.1578 615.452 27.6334C614.154 27.0921 613.025 26.3646 612.066 25.4511C611.106 24.5376 610.341 23.4634 609.773 22.2285C609.222 20.9936 608.946 19.6741 608.946 18.27C608.946 16.8659 609.222 15.5464 609.773 14.3115C610.341 13.0766 611.106 12.0024 612.066 11.0889C613.025 10.1754 614.154 9.45642 615.452 8.932C616.749 8.39067 618.135 8.12 619.611 8.12C621.086 8.12 622.472 8.39067 623.77 8.932C625.067 9.45642 626.196 10.1754 627.156 11.0889C628.116 12.0024 628.871 13.0766 629.422 14.3115C629.991 15.5464 630.275 16.8659 630.275 18.27C630.275 19.6741 629.991 20.9936 629.422 22.2285C628.871 23.4634 628.116 24.5376 627.156 25.4511C626.196 26.3646 625.067 27.0921 623.77 27.6334C622.472 28.1578 621.086 28.42 619.611 28.42ZM619.611 26.39C621.992 26.39 624.01 25.6034 625.663 24.0301C627.316 22.4569 628.142 20.5368 628.142 18.27C628.142 16.0032 627.316 14.0831 625.663 12.5099C624.01 10.9366 621.992 10.15 619.611 10.15C617.229 10.15 615.212 10.9366 613.559 12.5099C611.906 14.0831 611.079 16.0032 611.079 18.27C611.079 20.5368 611.906 22.4569 613.559 24.0301C615.212 25.6034 617.229 26.39 619.611 26.39Z" fill="#79747E"/>
<path d="M18.1297 595.805H20.2627V591.745H24.5285V589.715H20.2627V585.655H18.1297V589.715H13.8639V591.745H18.1297V595.805ZM19.1962 600.88C17.7209 600.88 16.3345 600.618 15.037 600.094C13.7395 599.552 12.6108 598.825 11.651 597.911C10.6912 596.998 9.92693 595.924 9.35815 594.689C8.80715 593.454 8.53165 592.134 8.53165 590.73C8.53165 589.326 8.80715 588.007 9.35815 586.772C9.92693 585.537 10.6912 584.463 11.651 583.549C12.6108 582.636 13.7395 581.917 15.037 581.392C16.3345 580.851 17.7209 580.58 19.1962 580.58C20.6715 580.58 22.0579 580.851 23.3554 581.392C24.6529 581.917 25.7816 582.636 26.7414 583.549C27.7012 584.463 28.4566 585.537 29.0076 586.772C29.5764 588.007 29.8608 589.326 29.8608 590.73C29.8608 592.134 29.5764 593.454 29.0076 594.689C28.4566 595.924 27.7012 596.998 26.7414 597.911C25.7816 598.825 24.6529 599.552 23.3554 600.094C22.0579 600.618 20.6715 600.88 19.1962 600.88ZM19.1962 598.85C21.578 598.85 23.5953 598.064 25.2483 596.49C26.9013 594.917 27.7278 592.997 27.7278 590.73C27.7278 588.463 26.9013 586.543 25.2483 584.97C23.5953 583.397 21.578 582.61 19.1962 582.61C16.8145 582.61 14.7971 583.397 13.1441 584.97C11.4911 586.543 10.6646 588.463 10.6646 590.73C10.6646 592.997 11.4911 594.917 13.1441 596.49C14.7971 598.064 16.8145 598.85 19.1962 598.85Z" fill="#79747E"/>
<path d="M618.544 595.805H620.677V591.745H624.943V589.715H620.677V585.655H618.544V589.715H614.278V591.745H618.544V595.805ZM619.611 600.88C618.135 600.88 616.749 600.618 615.452 600.094C614.154 599.552 613.025 598.825 612.066 597.911C611.106 596.998 610.341 595.924 609.773 594.689C609.222 593.454 608.946 592.134 608.946 590.73C608.946 589.326 609.222 588.007 609.773 586.772C610.341 585.537 611.106 584.463 612.066 583.549C613.025 582.636 614.154 581.917 615.452 581.392C616.749 580.851 618.135 580.58 619.611 580.58C621.086 580.58 622.472 580.851 623.77 581.392C625.067 581.917 626.196 582.636 627.156 583.549C628.116 584.463 628.871 585.537 629.422 586.772C629.991 588.007 630.275 589.326 630.275 590.73C630.275 592.134 629.991 593.454 629.422 594.689C628.871 595.924 628.116 596.998 627.156 597.911C626.196 598.825 625.067 599.552 623.77 600.094C622.472 600.618 621.086 600.88 619.611 600.88ZM619.611 598.85C621.992 598.85 624.01 598.064 625.663 596.49C627.316 594.917 628.142 592.997 628.142 590.73C628.142 588.463 627.316 586.543 625.663 584.97C624.01 583.397 621.992 582.61 619.611 582.61C617.229 582.61 615.212 583.397 613.559 584.97C611.906 586.543 611.079 588.463 611.079 590.73C611.079 592.997 611.906 594.917 613.559 596.49C615.212 598.064 617.229 598.85 619.611 598.85Z" fill="#79747E"/>
<g filter="url(#filter0_i_1_127)">
<rect x="584.732" y="145.899" width="50.5352" height="24.1552" rx="12.0776" fill="#3C3C43"/>
</g>
<g filter="url(#filter1_i_1_127)">
<rect x="584.732" y="243.581" width="50.5352" height="24.1552" rx="12.0776" fill="#3C3C43"/>
</g>
<g filter="url(#filter2_i_1_127)">
<rect x="584.732" y="341.264" width="50.5352" height="24.1552" rx="12.0776" fill="#3C3C43"/>
</g>
<g filter="url(#filter3_i_1_127)">
<rect x="584.732" y="438.946" width="50.5352" height="24.1552" rx="12.0776" fill="#3C3C43"/>
</g>
<g filter="url(#filter4_i_1_127)">
<rect x="466.051" y="556.732" width="50.5352" height="24.5708" rx="12.2854" transform="rotate(90 466.051 556.732)" fill="#3C3C43"/>
</g>
<g filter="url(#filter5_i_1_127)">
<rect x="366.785" y="556.732" width="50.5352" height="24.5708" rx="12.2854" transform="rotate(90 366.785 556.732)" fill="#3C3C43"/>
</g>
<g filter="url(#filter6_i_1_127)">
<rect x="267.519" y="556.732" width="50.5352" height="24.5708" rx="12.2854" transform="rotate(90 267.519 556.732)" fill="#3C3C43"/>
</g>
<g filter="url(#filter7_i_1_127)">
<mask id="path-16-inside-1_1_127" fill="white">
<path d="M586 88C586 83.5817 589.582 80 594 80H628C632.418 80 636 83.5817 636 88V122C636 126.418 632.418 130 628 130H594C589.582 130 586 126.418 586 122V88Z"/>
</mask>
<path d="M586 88C586 83.5817 589.582 80 594 80H628C632.418 80 636 83.5817 636 88V122C636 126.418 632.418 130 628 130H594C589.582 130 586 126.418 586 122V88Z" fill="#2C2C2C"/>
<path d="M594 81H628V79H594V81ZM635 88V122H637V88H635ZM628 129H594V131H628V129ZM587 122V88H585V122H587ZM594 129C590.134 129 587 125.866 587 122H585C585 126.971 589.029 131 594 131V129ZM635 122C635 125.866 631.866 129 628 129V131C632.971 131 637 126.971 637 122H635ZM628 81C631.866 81 635 84.134 635 88H637C637 83.0294 632.971 79 628 79V81ZM594 79C589.029 79 585 83.0294 585 88H587C587 84.134 590.134 81 594 81V79Z" fill="#2C2C2C" mask="url(#path-16-inside-1_1_127)"/>
<path d="M603.409 111V99.3636H607.341C608.25 99.3636 608.996 99.5189 609.58 99.8295C610.163 100.136 610.595 100.559 610.875 101.097C611.155 101.634 611.295 102.246 611.295 102.932C611.295 103.617 611.155 104.225 610.875 104.756C610.595 105.286 610.165 105.703 609.585 106.006C609.006 106.305 608.265 106.455 607.364 106.455H604.182V105.182H607.318C607.939 105.182 608.439 105.091 608.818 104.909C609.201 104.727 609.477 104.47 609.648 104.136C609.822 103.799 609.909 103.398 609.909 102.932C609.909 102.466 609.822 102.059 609.648 101.71C609.473 101.362 609.195 101.093 608.812 100.903C608.43 100.71 607.924 100.614 607.295 100.614H604.818V111H603.409ZM608.886 105.773L611.75 111H610.114L607.295 105.773H608.886ZM617.53 99.3636V111H616.121V100.841H616.053L613.212 102.727V101.295L616.121 99.3636H617.53Z" fill="#F5F5F5"/>
</g>
<g filter="url(#filter8_i_1_127)">
<mask id="path-19-inside-2_1_127" fill="white">
<path d="M586 188C586 183.582 589.582 180 594 180H628C632.418 180 636 183.582 636 188V222C636 226.418 632.418 230 628 230H594C589.582 230 586 226.418 586 222V188Z"/>
</mask>
<path d="M586 188C586 183.582 589.582 180 594 180H628C632.418 180 636 183.582 636 188V222C636 226.418 632.418 230 628 230H594C589.582 230 586 226.418 586 222V188Z" fill="#2C2C2C"/>
<path d="M594 181H628V179H594V181ZM635 188V222H637V188H635ZM628 229H594V231H628V229ZM587 222V188H585V222H587ZM594 229C590.134 229 587 225.866 587 222H585C585 226.971 589.029 231 594 231V229ZM635 222C635 225.866 631.866 229 628 229V231C632.971 231 637 226.971 637 222H635ZM628 181C631.866 181 635 184.134 635 188H637C637 183.029 632.971 179 628 179V181ZM594 179C589.029 179 585 183.029 585 188H587C587 184.134 590.134 181 594 181V179Z" fill="#2C2C2C" mask="url(#path-19-inside-2_1_127)"/>
<path d="M602.409 211V199.364H606.341C607.25 199.364 607.996 199.519 608.58 199.83C609.163 200.136 609.595 200.559 609.875 201.097C610.155 201.634 610.295 202.246 610.295 202.932C610.295 203.617 610.155 204.225 609.875 204.756C609.595 205.286 609.165 205.703 608.585 206.006C608.006 206.305 607.265 206.455 606.364 206.455H603.182V205.182H606.318C606.939 205.182 607.439 205.091 607.818 204.909C608.201 204.727 608.477 204.47 608.648 204.136C608.822 203.799 608.909 203.398 608.909 202.932C608.909 202.466 608.822 202.059 608.648 201.71C608.473 201.362 608.195 201.093 607.812 200.903C607.43 200.71 606.924 200.614 606.295 200.614H603.818V211H602.409ZM607.886 205.773L610.75 211H609.114L606.295 205.773H607.886ZM612.439 211V209.977L616.28 205.773C616.731 205.28 617.102 204.852 617.393 204.489C617.685 204.121 617.901 203.777 618.041 203.455C618.185 203.129 618.257 202.788 618.257 202.432C618.257 202.023 618.159 201.669 617.962 201.369C617.768 201.07 617.503 200.839 617.166 200.676C616.829 200.513 616.45 200.432 616.03 200.432C615.583 200.432 615.193 200.525 614.859 200.71C614.53 200.892 614.274 201.148 614.092 201.477C613.914 201.807 613.825 202.193 613.825 202.636H612.484C612.484 201.955 612.642 201.356 612.956 200.841C613.27 200.326 613.698 199.924 614.24 199.636C614.786 199.348 615.397 199.205 616.075 199.205C616.757 199.205 617.361 199.348 617.888 199.636C618.414 199.924 618.827 200.312 619.126 200.801C619.426 201.29 619.575 201.833 619.575 202.432C619.575 202.86 619.498 203.278 619.342 203.688C619.191 204.093 618.926 204.545 618.547 205.045C618.172 205.542 617.651 206.148 616.984 206.864L614.371 209.659V209.75H619.78V211H612.439Z" fill="#F5F5F5"/>
</g>
<g filter="url(#filter9_i_1_127)">
<mask id="path-22-inside-3_1_127" fill="white">
<path d="M586 288C586 283.582 589.582 280 594 280H628C632.418 280 636 283.582 636 288V322C636 326.418 632.418 330 628 330H594C589.582 330 586 326.418 586 322V288Z"/>
</mask>
<path d="M586 288C586 283.582 589.582 280 594 280H628C632.418 280 636 283.582 636 288V322C636 326.418 632.418 330 628 330H594C589.582 330 586 326.418 586 322V288Z" fill="#2C2C2C"/>
<path d="M594 281H628V279H594V281ZM635 288V322H637V288H635ZM628 329H594V331H628V329ZM587 322V288H585V322H587ZM594 329C590.134 329 587 325.866 587 322H585C585 326.971 589.029 331 594 331V329ZM635 322C635 325.866 631.866 329 628 329V331C632.971 331 637 326.971 637 322H635ZM628 281C631.866 281 635 284.134 635 288H637C637 283.029 632.971 279 628 279V281ZM594 279C589.029 279 585 283.029 585 288H587C587 284.134 590.134 281 594 281V279Z" fill="#2C2C2C" mask="url(#path-22-inside-3_1_127)"/>
<path d="M601.909 311V299.364H605.841C606.75 299.364 607.496 299.519 608.08 299.83C608.663 300.136 609.095 300.559 609.375 301.097C609.655 301.634 609.795 302.246 609.795 302.932C609.795 303.617 609.655 304.225 609.375 304.756C609.095 305.286 608.665 305.703 608.085 306.006C607.506 306.305 606.765 306.455 605.864 306.455H602.682V305.182H605.818C606.439 305.182 606.939 305.091 607.318 304.909C607.701 304.727 607.977 304.47 608.148 304.136C608.322 303.799 608.409 303.398 608.409 302.932C608.409 302.466 608.322 302.059 608.148 301.71C607.973 301.362 607.695 301.093 607.312 300.903C606.93 300.71 606.424 300.614 605.795 300.614H603.318V311H601.909ZM607.386 305.773L610.25 311H608.614L605.795 305.773H607.386ZM615.871 311.159C615.121 311.159 614.452 311.03 613.865 310.773C613.282 310.515 612.818 310.157 612.473 309.699C612.132 309.237 611.946 308.701 611.916 308.091H613.348C613.378 308.466 613.507 308.79 613.734 309.062C613.962 309.331 614.259 309.54 614.626 309.688C614.994 309.835 615.401 309.909 615.848 309.909C616.348 309.909 616.791 309.822 617.178 309.648C617.564 309.473 617.867 309.231 618.087 308.92C618.306 308.61 618.416 308.25 618.416 307.841C618.416 307.413 618.31 307.036 618.098 306.71C617.886 306.381 617.575 306.123 617.166 305.938C616.757 305.752 616.257 305.659 615.666 305.659H614.734V304.409H615.666C616.128 304.409 616.534 304.326 616.882 304.159C617.234 303.992 617.509 303.758 617.706 303.455C617.907 303.152 618.007 302.795 618.007 302.386C618.007 301.992 617.92 301.65 617.746 301.358C617.571 301.066 617.325 300.839 617.007 300.676C616.693 300.513 616.321 300.432 615.893 300.432C615.492 300.432 615.113 300.506 614.757 300.653C614.405 300.797 614.117 301.008 613.893 301.284C613.67 301.557 613.549 301.886 613.53 302.273H612.166C612.189 301.663 612.373 301.129 612.717 300.67C613.062 300.208 613.513 299.848 614.07 299.591C614.63 299.333 615.246 299.205 615.916 299.205C616.636 299.205 617.253 299.35 617.768 299.642C618.284 299.93 618.679 300.311 618.956 300.784C619.232 301.258 619.371 301.769 619.371 302.318C619.371 302.973 619.198 303.532 618.854 303.994C618.513 304.456 618.049 304.777 617.462 304.955V305.045C618.196 305.167 618.77 305.479 619.183 305.983C619.596 306.483 619.803 307.102 619.803 307.841C619.803 308.473 619.63 309.042 619.286 309.545C618.945 310.045 618.479 310.439 617.888 310.727C617.297 311.015 616.625 311.159 615.871 311.159Z" fill="#F5F5F5"/>
</g>
<g filter="url(#filter10_i_1_127)">
<mask id="path-25-inside-4_1_127" fill="white">
<path d="M587 383C587 378.582 590.582 375 595 375H629C633.418 375 637 378.582 637 383V417C637 421.418 633.418 425 629 425H595C590.582 425 587 421.418 587 417V383Z"/>
</mask>
<path d="M587 383C587 378.582 590.582 375 595 375H629C633.418 375 637 378.582 637 383V417C637 421.418 633.418 425 629 425H595C590.582 425 587 421.418 587 417V383Z" fill="#2C2C2C"/>
<path d="M595 376H629V374H595V376ZM636 383V417H638V383H636ZM629 424H595V426H629V424ZM588 417V383H586V417H588ZM595 424C591.134 424 588 420.866 588 417H586C586 421.971 590.029 426 595 426V424ZM636 417C636 420.866 632.866 424 629 424V426C633.971 426 638 421.971 638 417H636ZM629 376C632.866 376 636 379.134 636 383H638C638 378.029 633.971 374 629 374V376ZM595 374C590.029 374 586 378.029 586 383H588C588 379.134 591.134 376 595 376V374Z" fill="#2C2C2C" mask="url(#path-25-inside-4_1_127)"/>
<path d="M602.909 406V394.364H606.841C607.75 394.364 608.496 394.519 609.08 394.83C609.663 395.136 610.095 395.559 610.375 396.097C610.655 396.634 610.795 397.246 610.795 397.932C610.795 398.617 610.655 399.225 610.375 399.756C610.095 400.286 609.665 400.703 609.085 401.006C608.506 401.305 607.765 401.455 606.864 401.455H603.682V400.182H606.818C607.439 400.182 607.939 400.091 608.318 399.909C608.701 399.727 608.977 399.47 609.148 399.136C609.322 398.799 609.409 398.398 609.409 397.932C609.409 397.466 609.322 397.059 609.148 396.71C608.973 396.362 608.695 396.093 608.312 395.903C607.93 395.71 607.424 395.614 606.795 395.614H604.318V406H602.909ZM608.386 400.773L611.25 406H609.614L606.795 400.773H608.386ZM612.666 403.614V402.455L617.78 394.364H618.621V396.159H618.053L614.189 402.273V402.364H621.075V403.614H612.666ZM618.143 406V403.261V402.722V394.364H619.484V406H618.143Z" fill="#F5F5F5"/>
</g>
<g filter="url(#filter11_i_1_127)">
<mask id="path-28-inside-5_1_127" fill="white">
<path d="M585 478C585 473.582 588.582 470 593 470H627C631.418 470 635 473.582 635 478V512C635 516.418 631.418 520 627 520H593C588.582 520 585 516.418 585 512V478Z"/>
</mask>
<path d="M585 478C585 473.582 588.582 470 593 470H627C631.418 470 635 473.582 635 478V512C635 516.418 631.418 520 627 520H593C588.582 520 585 516.418 585 512V478Z" fill="#2C2C2C"/>
<path d="M593 471H627V469H593V471ZM634 478V512H636V478H634ZM627 519H593V521H627V519ZM586 512V478H584V512H586ZM593 519C589.134 519 586 515.866 586 512H584C584 516.971 588.029 521 593 521V519ZM634 512C634 515.866 630.866 519 627 519V521C631.971 521 636 516.971 636 512H634ZM627 471C630.866 471 634 474.134 634 478H636C636 473.029 631.971 469 627 469V471ZM593 469C588.029 469 584 473.029 584 478H586C586 474.134 589.134 471 593 471V469Z" fill="#2C2C2C" mask="url(#path-28-inside-5_1_127)"/>
<path d="M601.409 501V489.364H605.341C606.25 489.364 606.996 489.519 607.58 489.83C608.163 490.136 608.595 490.559 608.875 491.097C609.155 491.634 609.295 492.246 609.295 492.932C609.295 493.617 609.155 494.225 608.875 494.756C608.595 495.286 608.165 495.703 607.585 496.006C607.006 496.305 606.265 496.455 605.364 496.455H602.182V495.182H605.318C605.939 495.182 606.439 495.091 606.818 494.909C607.201 494.727 607.477 494.47 607.648 494.136C607.822 493.799 607.909 493.398 607.909 492.932C607.909 492.466 607.822 492.059 607.648 491.71C607.473 491.362 607.195 491.093 606.812 490.903C606.43 490.71 605.924 490.614 605.295 490.614H602.818V501H601.409ZM606.886 495.773L609.75 501H608.114L605.295 495.773H606.886ZM615.075 501.159C614.409 501.159 613.808 501.027 613.274 500.761C612.74 500.496 612.312 500.133 611.99 499.67C611.668 499.208 611.492 498.682 611.462 498.091H612.825C612.878 498.617 613.117 499.053 613.541 499.398C613.969 499.739 614.481 499.909 615.075 499.909C615.553 499.909 615.977 499.797 616.348 499.574C616.723 499.35 617.017 499.044 617.229 498.653C617.445 498.259 617.553 497.814 617.553 497.318C617.553 496.811 617.441 496.358 617.217 495.96C616.998 495.559 616.695 495.242 616.308 495.011C615.922 494.78 615.481 494.663 614.984 494.659C614.628 494.655 614.263 494.71 613.888 494.824C613.513 494.934 613.204 495.076 612.962 495.25L611.643 495.091L612.348 489.364H618.393V490.614H613.53L613.121 494.045H613.189C613.428 493.856 613.727 493.699 614.087 493.574C614.446 493.449 614.821 493.386 615.212 493.386C615.924 493.386 616.558 493.557 617.115 493.898C617.676 494.235 618.115 494.697 618.433 495.284C618.755 495.871 618.916 496.542 618.916 497.295C618.916 498.038 618.75 498.701 618.416 499.284C618.087 499.864 617.632 500.322 617.053 500.659C616.473 500.992 615.814 501.159 615.075 501.159Z" fill="#F5F5F5"/>
</g>
<g filter="url(#filter12_i_1_127)">
<mask id="path-31-inside-6_1_127" fill="white">
<path d="M178 564C178 559.582 181.582 556 186 556H220C224.418 556 228 559.582 228 564V598C228 602.418 224.418 606 220 606H186C181.582 606 178 602.418 178 598V564Z"/>
</mask>
<path d="M178 564C178 559.582 181.582 556 186 556H220C224.418 556 228 559.582 228 564V598C228 602.418 224.418 606 220 606H186C181.582 606 178 602.418 178 598V564Z" fill="#2C2C2C"/>
<path d="M186 557H220V555H186V557ZM227 564V598H229V564H227ZM220 605H186V607H220V605ZM179 598V564H177V598H179ZM186 605C182.134 605 179 601.866 179 598H177C177 602.971 181.029 607 186 607V605ZM227 598C227 601.866 223.866 605 220 605V607C224.971 607 229 602.971 229 598H227ZM220 557C223.866 557 227 560.134 227 564H229C229 559.029 224.971 555 220 555V557ZM186 555C181.029 555 177 559.029 177 564H179C179 560.134 182.134 557 186 557V555Z" fill="#2C2C2C" mask="url(#path-31-inside-6_1_127)"/>
<path d="M195.409 587V575.364H199.477C200.288 575.364 200.956 575.504 201.483 575.784C202.009 576.061 202.402 576.434 202.659 576.903C202.917 577.369 203.045 577.886 203.045 578.455C203.045 578.955 202.956 579.367 202.778 579.693C202.604 580.019 202.373 580.277 202.085 580.466C201.801 580.655 201.492 580.795 201.159 580.886V581C201.515 581.023 201.873 581.148 202.233 581.375C202.593 581.602 202.894 581.928 203.136 582.352C203.379 582.777 203.5 583.295 203.5 583.909C203.5 584.492 203.367 585.017 203.102 585.483C202.837 585.949 202.419 586.318 201.847 586.591C201.275 586.864 200.53 587 199.614 587H195.409ZM196.818 585.75H199.614C200.534 585.75 201.188 585.572 201.574 585.216C201.964 584.856 202.159 584.42 202.159 583.909C202.159 583.515 202.059 583.152 201.858 582.818C201.657 582.481 201.371 582.212 201 582.011C200.629 581.807 200.189 581.705 199.682 581.705H196.818V585.75ZM196.818 580.477H199.432C199.856 580.477 200.239 580.394 200.58 580.227C200.924 580.061 201.197 579.826 201.398 579.523C201.602 579.22 201.705 578.864 201.705 578.455C201.705 577.943 201.527 577.509 201.17 577.153C200.814 576.794 200.25 576.614 199.477 576.614H196.818V580.477ZM209.702 575.364V587H208.293V576.841H208.224L205.384 578.727V577.295L208.293 575.364H209.702Z" fill="#F5F5F5"/>
</g>
<g filter="url(#filter13_i_1_127)">
<mask id="path-34-inside-7_1_127" fill="white">
<path d="M280 565C280 560.582 283.582 557 288 557H322C326.418 557 330 560.582 330 565V599C330 603.418 326.418 607 322 607H288C283.582 607 280 603.418 280 599V565Z"/>
</mask>
<path d="M280 565C280 560.582 283.582 557 288 557H322C326.418 557 330 560.582 330 565V599C330 603.418 326.418 607 322 607H288C283.582 607 280 603.418 280 599V565Z" fill="#2C2C2C"/>
<path d="M288 558H322V556H288V558ZM329 565V599H331V565H329ZM322 606H288V608H322V606ZM281 599V565H279V599H281ZM288 606C284.134 606 281 602.866 281 599H279C279 603.971 283.029 608 288 608V606ZM329 599C329 602.866 325.866 606 322 606V608C326.971 608 331 603.971 331 599H329ZM322 558C325.866 558 329 561.134 329 565H331C331 560.029 326.971 556 322 556V558ZM288 556C283.029 556 279 560.029 279 565H281C281 561.134 284.134 558 288 558V556Z" fill="#2C2C2C" mask="url(#path-34-inside-7_1_127)"/>
<path d="M295.909 588V576.364H299.977C300.788 576.364 301.456 576.504 301.983 576.784C302.509 577.061 302.902 577.434 303.159 577.903C303.417 578.369 303.545 578.886 303.545 579.455C303.545 579.955 303.456 580.367 303.278 580.693C303.104 581.019 302.873 581.277 302.585 581.466C302.301 581.655 301.992 581.795 301.659 581.886V582C302.015 582.023 302.373 582.148 302.733 582.375C303.093 582.602 303.394 582.928 303.636 583.352C303.879 583.777 304 584.295 304 584.909C304 585.492 303.867 586.017 303.602 586.483C303.337 586.949 302.919 587.318 302.347 587.591C301.775 587.864 301.03 588 300.114 588H295.909ZM297.318 586.75H300.114C301.034 586.75 301.688 586.572 302.074 586.216C302.464 585.856 302.659 585.42 302.659 584.909C302.659 584.515 302.559 584.152 302.358 583.818C302.157 583.481 301.871 583.212 301.5 583.011C301.129 582.807 300.689 582.705 300.182 582.705H297.318V586.75ZM297.318 581.477H299.932C300.356 581.477 300.739 581.394 301.08 581.227C301.424 581.061 301.697 580.826 301.898 580.523C302.102 580.22 302.205 579.864 302.205 579.455C302.205 578.943 302.027 578.509 301.67 578.153C301.314 577.794 300.75 577.614 299.977 577.614H297.318V581.477ZM306.111 588V586.977L309.952 582.773C310.402 582.28 310.774 581.852 311.065 581.489C311.357 581.121 311.573 580.777 311.713 580.455C311.857 580.129 311.929 579.788 311.929 579.432C311.929 579.023 311.83 578.669 311.634 578.369C311.44 578.07 311.175 577.839 310.838 577.676C310.501 577.513 310.122 577.432 309.702 577.432C309.255 577.432 308.865 577.525 308.531 577.71C308.202 577.892 307.946 578.148 307.764 578.477C307.586 578.807 307.497 579.193 307.497 579.636H306.156C306.156 578.955 306.313 578.356 306.628 577.841C306.942 577.326 307.37 576.924 307.912 576.636C308.457 576.348 309.069 576.205 309.747 576.205C310.429 576.205 311.033 576.348 311.56 576.636C312.086 576.924 312.499 577.312 312.798 577.801C313.098 578.29 313.247 578.833 313.247 579.432C313.247 579.86 313.17 580.278 313.014 580.688C312.863 581.093 312.598 581.545 312.219 582.045C311.844 582.542 311.323 583.148 310.656 583.864L308.043 586.659V586.75H313.452V588H306.111Z" fill="#F5F5F5"/>
</g>
<g filter="url(#filter14_i_1_127)">
<mask id="path-37-inside-8_1_127" fill="white">
<path d="M381 564C381 559.582 384.582 556 389 556H423C427.418 556 431 559.582 431 564V598C431 602.418 427.418 606 423 606H389C384.582 606 381 602.418 381 598V564Z"/>
</mask>
<path d="M381 564C381 559.582 384.582 556 389 556H423C427.418 556 431 559.582 431 564V598C431 602.418 427.418 606 423 606H389C384.582 606 381 602.418 381 598V564Z" fill="#2C2C2C"/>
<path d="M389 557H423V555H389V557ZM430 564V598H432V564H430ZM423 605H389V607H423V605ZM382 598V564H380V598H382ZM389 605C385.134 605 382 601.866 382 598H380C380 602.971 384.029 607 389 607V605ZM430 598C430 601.866 426.866 605 423 605V607C427.971 607 432 602.971 432 598H430ZM423 557C426.866 557 430 560.134 430 564H432C432 559.029 427.971 555 423 555V557ZM389 555C384.029 555 380 559.029 380 564H382C382 560.134 385.134 557 389 557V555Z" fill="#2C2C2C" mask="url(#path-37-inside-8_1_127)"/>
<path d="M396.909 587V575.364H400.977C401.788 575.364 402.456 575.504 402.983 575.784C403.509 576.061 403.902 576.434 404.159 576.903C404.417 577.369 404.545 577.886 404.545 578.455C404.545 578.955 404.456 579.367 404.278 579.693C404.104 580.019 403.873 580.277 403.585 580.466C403.301 580.655 402.992 580.795 402.659 580.886V581C403.015 581.023 403.373 581.148 403.733 581.375C404.093 581.602 404.394 581.928 404.636 582.352C404.879 582.777 405 583.295 405 583.909C405 584.492 404.867 585.017 404.602 585.483C404.337 585.949 403.919 586.318 403.347 586.591C402.775 586.864 402.03 587 401.114 587H396.909ZM398.318 585.75H401.114C402.034 585.75 402.688 585.572 403.074 585.216C403.464 584.856 403.659 584.42 403.659 583.909C403.659 583.515 403.559 583.152 403.358 582.818C403.157 582.481 402.871 582.212 402.5 582.011C402.129 581.807 401.689 581.705 401.182 581.705H398.318V585.75ZM398.318 580.477H400.932C401.356 580.477 401.739 580.394 402.08 580.227C402.424 580.061 402.697 579.826 402.898 579.523C403.102 579.22 403.205 578.864 403.205 578.455C403.205 577.943 403.027 577.509 402.67 577.153C402.314 576.794 401.75 576.614 400.977 576.614H398.318V580.477ZM411.043 587.159C410.293 587.159 409.624 587.03 409.037 586.773C408.454 586.515 407.99 586.157 407.645 585.699C407.304 585.237 407.118 584.701 407.088 584.091H408.52C408.55 584.466 408.679 584.79 408.906 585.062C409.134 585.331 409.431 585.54 409.798 585.688C410.166 585.835 410.573 585.909 411.02 585.909C411.52 585.909 411.963 585.822 412.349 585.648C412.736 585.473 413.039 585.231 413.259 584.92C413.478 584.61 413.588 584.25 413.588 583.841C413.588 583.413 413.482 583.036 413.27 582.71C413.058 582.381 412.747 582.123 412.338 581.938C411.929 581.752 411.429 581.659 410.838 581.659H409.906V580.409H410.838C411.3 580.409 411.705 580.326 412.054 580.159C412.406 579.992 412.681 579.758 412.878 579.455C413.079 579.152 413.179 578.795 413.179 578.386C413.179 577.992 413.092 577.65 412.918 577.358C412.743 577.066 412.497 576.839 412.179 576.676C411.865 576.513 411.493 576.432 411.065 576.432C410.664 576.432 410.285 576.506 409.929 576.653C409.577 576.797 409.289 577.008 409.065 577.284C408.842 577.557 408.721 577.886 408.702 578.273H407.338C407.361 577.663 407.545 577.129 407.889 576.67C408.234 576.208 408.685 575.848 409.241 575.591C409.802 575.333 410.418 575.205 411.088 575.205C411.808 575.205 412.425 575.35 412.94 575.642C413.455 575.93 413.851 576.311 414.128 576.784C414.404 577.258 414.543 577.769 414.543 578.318C414.543 578.973 414.37 579.532 414.026 579.994C413.685 580.456 413.221 580.777 412.634 580.955V581.045C413.368 581.167 413.942 581.479 414.355 581.983C414.768 582.483 414.974 583.102 414.974 583.841C414.974 584.473 414.802 585.042 414.457 585.545C414.116 586.045 413.651 586.439 413.06 586.727C412.469 587.015 411.796 587.159 411.043 587.159Z" fill="#F5F5F5"/>
</g>
<g filter="url(#filter15_i_1_127)">
<mask id="path-40-inside-9_1_127" fill="white">
<path d="M481 564C481 559.582 484.582 556 489 556H523C527.418 556 531 559.582 531 564V598C531 602.418 527.418 606 523 606H489C484.582 606 481 602.418 481 598V564Z"/>
</mask>
<path d="M481 564C481 559.582 484.582 556 489 556H523C527.418 556 531 559.582 531 564V598C531 602.418 527.418 606 523 606H489C484.582 606 481 602.418 481 598V564Z" fill="#2C2C2C"/>
<path d="M489 557H523V555H489V557ZM530 564V598H532V564H530ZM523 605H489V607H523V605ZM482 598V564H480V598H482ZM489 605C485.134 605 482 601.866 482 598H480C480 602.971 484.029 607 489 607V605ZM530 598C530 601.866 526.866 605 523 605V607C527.971 607 532 602.971 532 598H530ZM523 557C526.866 557 530 560.134 530 564H532C532 559.029 527.971 555 523 555V557ZM489 555C484.029 555 480 559.029 480 564H482C482 560.134 485.134 557 489 557V555Z" fill="#2C2C2C" mask="url(#path-40-inside-9_1_127)"/>
<path d="M496.909 587V575.364H500.977C501.788 575.364 502.456 575.504 502.983 575.784C503.509 576.061 503.902 576.434 504.159 576.903C504.417 577.369 504.545 577.886 504.545 578.455C504.545 578.955 504.456 579.367 504.278 579.693C504.104 580.019 503.873 580.277 503.585 580.466C503.301 580.655 502.992 580.795 502.659 580.886V581C503.015 581.023 503.373 581.148 503.733 581.375C504.093 581.602 504.394 581.928 504.636 582.352C504.879 582.777 505 583.295 505 583.909C505 584.492 504.867 585.017 504.602 585.483C504.337 585.949 503.919 586.318 503.347 586.591C502.775 586.864 502.03 587 501.114 587H496.909ZM498.318 585.75H501.114C502.034 585.75 502.688 585.572 503.074 585.216C503.464 584.856 503.659 584.42 503.659 583.909C503.659 583.515 503.559 583.152 503.358 582.818C503.157 582.481 502.871 582.212 502.5 582.011C502.129 581.807 501.689 581.705 501.182 581.705H498.318V585.75ZM498.318 580.477H500.932C501.356 580.477 501.739 580.394 502.08 580.227C502.424 580.061 502.697 579.826 502.898 579.523C503.102 579.22 503.205 578.864 503.205 578.455C503.205 577.943 503.027 577.509 502.67 577.153C502.314 576.794 501.75 576.614 500.977 576.614H498.318V580.477ZM506.838 584.614V583.455L511.952 575.364H512.793V577.159H512.224L508.361 583.273V583.364H515.247V584.614H506.838ZM512.315 587V584.261V583.722V575.364H513.656V587H512.315Z" fill="#F5F5F5"/>
</g>
<g filter="url(#filter16_i_1_127)">
<mask id="path-43-inside-10_1_127" fill="white">
<path d="M4 475C4 470.582 7.58172 467 12 467H46C50.4183 467 54 470.582 54 475V509C54 513.418 50.4183 517 46 517H12C7.58172 517 4 513.418 4 509V475Z"/>
</mask>
<path d="M4 475C4 470.582 7.58172 467 12 467H46C50.4183 467 54 470.582 54 475V509C54 513.418 50.4183 517 46 517H12C7.58172 517 4 513.418 4 509V475Z" fill="#2C2C2C"/>
<path d="M12 468H46V466H12V468ZM53 475V509H55V475H53ZM46 516H12V518H46V516ZM5 509V475H3V509H5ZM12 516C8.13401 516 5 512.866 5 509H3C3 513.971 7.02944 518 12 518V516ZM53 509C53 512.866 49.866 516 46 516V518C50.9706 518 55 513.971 55 509H53ZM46 468C49.866 468 53 471.134 53 475H55C55 470.029 50.9706 466 46 466V468ZM12 466C7.02944 466 3 470.029 3 475H5C5 471.134 8.13401 468 12 468V466Z" fill="#2C2C2C" mask="url(#path-43-inside-10_1_127)"/>
<path d="M13.5227 498L10.3409 486.364H11.7727L14.2045 495.841H14.3182L16.7955 486.364H18.3864L20.8636 495.841H20.9773L23.4091 486.364H24.8409L21.6591 498H20.2045L17.6364 488.727H17.5455L14.9773 498H13.5227ZM26.5966 498V486.364H30.5284C31.4413 486.364 32.1875 486.528 32.767 486.858C33.3504 487.184 33.7822 487.625 34.0625 488.182C34.3428 488.739 34.483 489.36 34.483 490.045C34.483 490.731 34.3428 491.354 34.0625 491.915C33.786 492.475 33.358 492.922 32.7784 493.256C32.1989 493.585 31.4564 493.75 30.5511 493.75H27.733V492.5H30.5057C31.1307 492.5 31.6326 492.392 32.0114 492.176C32.3902 491.96 32.6648 491.669 32.8352 491.301C33.0095 490.93 33.0966 490.511 33.0966 490.045C33.0966 489.58 33.0095 489.163 32.8352 488.795C32.6648 488.428 32.3883 488.14 32.0057 487.932C31.6231 487.72 31.1155 487.614 30.483 487.614H28.0057V498H26.5966ZM45.9801 486.364V498H44.6165L38.2756 488.864H38.1619V498H36.7528V486.364H38.1165L44.4801 495.523H44.5938V486.364H45.9801Z" fill="#F5F5F5"/>
</g>
<g filter="url(#filter17_i_1_127)">
<mask id="path-46-inside-11_1_127" fill="white">
<path d="M4 381C4 376.582 7.58172 373 12 373H46C50.4183 373 54 376.582 54 381V415C54 419.418 50.4183 423 46 423H12C7.58172 423 4 419.418 4 415V381Z"/>
</mask>
<path d="M4 381C4 376.582 7.58172 373 12 373H46C50.4183 373 54 376.582 54 381V415C54 419.418 50.4183 423 46 423H12C7.58172 423 4 419.418 4 415V381Z" fill="#2C2C2C"/>
<path d="M12 374H46V372H12V374ZM53 381V415H55V381H53ZM46 422H12V424H46V422ZM5 415V381H3V415H5ZM12 422C8.13401 422 5 418.866 5 415H3C3 419.971 7.02944 424 12 424V422ZM53 415C53 418.866 49.866 422 46 422V424C50.9706 424 55 419.971 55 415H53ZM46 374C49.866 374 53 377.134 53 381H55C55 376.029 50.9706 372 46 372V374ZM12 372C7.02944 372 3 376.029 3 381H5C5 377.134 8.13401 374 12 374V372Z" fill="#2C2C2C" mask="url(#path-46-inside-11_1_127)"/>
<path d="M15.2727 395.273C15.2045 394.697 14.928 394.25 14.4432 393.932C13.9583 393.614 13.3636 393.455 12.6591 393.455C12.1439 393.455 11.6932 393.538 11.3068 393.705C10.9242 393.871 10.625 394.1 10.4091 394.392C10.197 394.684 10.0909 395.015 10.0909 395.386C10.0909 395.697 10.1648 395.964 10.3125 396.188C10.464 396.407 10.6572 396.591 10.892 396.739C11.1269 396.883 11.3731 397.002 11.6307 397.097C11.8883 397.187 12.125 397.261 12.3409 397.318L13.5227 397.636C13.8258 397.716 14.1629 397.826 14.5341 397.966C14.9091 398.106 15.267 398.297 15.608 398.54C15.9527 398.778 16.2367 399.085 16.4602 399.46C16.6837 399.835 16.7955 400.295 16.7955 400.841C16.7955 401.47 16.6307 402.038 16.3011 402.545C15.9754 403.053 15.4981 403.456 14.8693 403.756C14.2443 404.055 13.4848 404.205 12.5909 404.205C11.7576 404.205 11.036 404.07 10.4261 403.801C9.82008 403.532 9.3428 403.157 8.99432 402.676C8.64962 402.195 8.45455 401.636 8.40909 401H9.86364C9.90152 401.439 10.0492 401.803 10.3068 402.091C10.5682 402.375 10.8977 402.587 11.2955 402.727C11.697 402.864 12.1288 402.932 12.5909 402.932C13.1288 402.932 13.6117 402.845 14.0398 402.67C14.4678 402.492 14.8068 402.246 15.0568 401.932C15.3068 401.614 15.4318 401.242 15.4318 400.818C15.4318 400.432 15.3239 400.117 15.108 399.875C14.892 399.633 14.608 399.436 14.2557 399.284C13.9034 399.133 13.5227 399 13.1136 398.886L11.6818 398.477C10.7727 398.216 10.053 397.843 9.52273 397.358C8.99242 396.873 8.72727 396.239 8.72727 395.455C8.72727 394.803 8.90341 394.235 9.25568 393.75C9.61174 393.261 10.089 392.883 10.6875 392.614C11.2898 392.341 11.9621 392.205 12.7045 392.205C13.4545 392.205 14.1212 392.339 14.7045 392.608C15.2879 392.873 15.75 393.237 16.0909 393.699C16.4356 394.161 16.6174 394.686 16.6364 395.273H15.2727ZM28.3395 392.364V404H26.9759L20.6349 394.864H20.5213V404H19.1122V392.364H20.4759L26.8395 401.523H26.9531V392.364H28.3395ZM37.5227 395.273C37.4545 394.697 37.178 394.25 36.6932 393.932C36.2083 393.614 35.6136 393.455 34.9091 393.455C34.3939 393.455 33.9432 393.538 33.5568 393.705C33.1742 393.871 32.875 394.1 32.6591 394.392C32.447 394.684 32.3409 395.015 32.3409 395.386C32.3409 395.697 32.4148 395.964 32.5625 396.188C32.714 396.407 32.9072 396.591 33.142 396.739C33.3769 396.883 33.6231 397.002 33.8807 397.097C34.1383 397.187 34.375 397.261 34.5909 397.318L35.7727 397.636C36.0758 397.716 36.4129 397.826 36.7841 397.966C37.1591 398.106 37.517 398.297 37.858 398.54C38.2027 398.778 38.4867 399.085 38.7102 399.46C38.9337 399.835 39.0455 400.295 39.0455 400.841C39.0455 401.47 38.8807 402.038 38.5511 402.545C38.2254 403.053 37.7481 403.456 37.1193 403.756C36.4943 404.055 35.7348 404.205 34.8409 404.205C34.0076 404.205 33.286 404.07 32.6761 403.801C32.0701 403.532 31.5928 403.157 31.2443 402.676C30.8996 402.195 30.7045 401.636 30.6591 401H32.1136C32.1515 401.439 32.2992 401.803 32.5568 402.091C32.8182 402.375 33.1477 402.587 33.5455 402.727C33.947 402.864 34.3788 402.932 34.8409 402.932C35.3788 402.932 35.8617 402.845 36.2898 402.67C36.7178 402.492 37.0568 402.246 37.3068 401.932C37.5568 401.614 37.6818 401.242 37.6818 400.818C37.6818 400.432 37.5739 400.117 37.358 399.875C37.142 399.633 36.858 399.436 36.5057 399.284C36.1534 399.133 35.7727 399 35.3636 398.886L33.9318 398.477C33.0227 398.216 32.303 397.843 31.7727 397.358C31.2424 396.873 30.9773 396.239 30.9773 395.455C30.9773 394.803 31.1534 394.235 31.5057 393.75C31.8617 393.261 32.339 392.883 32.9375 392.614C33.5398 392.341 34.2121 392.205 34.9545 392.205C35.7045 392.205 36.3712 392.339 36.9545 392.608C37.5379 392.873 38 393.237 38.3409 393.699C38.6856 394.161 38.8674 394.686 38.8864 395.273H37.5227ZM41.3622 404V392.364H45.294C46.2031 392.364 46.9493 392.519 47.5327 392.83C48.116 393.136 48.5478 393.559 48.8281 394.097C49.1084 394.634 49.2486 395.246 49.2486 395.932C49.2486 396.617 49.1084 397.225 48.8281 397.756C48.5478 398.286 48.1179 398.703 47.5384 399.006C46.9588 399.305 46.2183 399.455 45.3168 399.455H42.1349V398.182H45.2713C45.8925 398.182 46.3925 398.091 46.7713 397.909C47.1539 397.727 47.4304 397.47 47.6009 397.136C47.7751 396.799 47.8622 396.398 47.8622 395.932C47.8622 395.466 47.7751 395.059 47.6009 394.71C47.4266 394.362 47.1482 394.093 46.7656 393.903C46.383 393.71 45.8774 393.614 45.2486 393.614H42.7713V404H41.3622ZM46.8395 398.773L49.7031 404H48.0668L45.2486 398.773H46.8395Z" fill="#F5F5F5"/>
</g>
<g filter="url(#filter18_i_1_127)">
<mask id="path-49-inside-12_1_127" fill="white">
<path d="M4 286C4 281.582 7.58172 278 12 278H46C50.4183 278 54 281.582 54 286V320C54 324.418 50.4183 328 46 328H12C7.58172 328 4 324.418 4 320V286Z"/>
</mask>
<path d="M4 286C4 281.582 7.58172 278 12 278H46C50.4183 278 54 281.582 54 286V320C54 324.418 50.4183 328 46 328H12C7.58172 328 4 324.418 4 320V286Z" fill="#2C2C2C"/>
<path d="M12 279H46V277H12V279ZM53 286V320H55V286H53ZM46 327H12V329H46V327ZM5 320V286H3V320H5ZM12 327C8.13401 327 5 323.866 5 320H3C3 324.971 7.02944 329 12 329V327ZM53 320C53 323.866 49.866 327 46 327V329C50.9706 329 55 324.971 55 320H53ZM46 279C49.866 279 53 282.134 53 286H55C55 281.029 50.9706 277 46 277V279ZM12 277C7.02944 277 3 281.029 3 286H5C5 282.134 8.13401 279 12 279V277Z" fill="#2C2C2C" mask="url(#path-49-inside-12_1_127)"/>
<path d="M15.3864 309H13.9091L18.1818 297.364H19.6364L23.9091 309H22.4318L18.9545 299.205H18.8636L15.3864 309ZM15.9318 304.455H21.8864V305.705H15.9318V304.455ZM30.5398 302.557V303.807H25.4489V302.557H30.5398ZM41.0355 301C40.9105 300.617 40.7457 300.275 40.5412 299.972C40.3404 299.665 40.0999 299.403 39.8196 299.188C39.5431 298.972 39.2287 298.807 38.8764 298.693C38.5241 298.58 38.1378 298.523 37.7173 298.523C37.0279 298.523 36.401 298.701 35.8366 299.057C35.2723 299.413 34.8234 299.938 34.4901 300.631C34.1567 301.324 33.9901 302.174 33.9901 303.182C33.9901 304.189 34.1586 305.04 34.4957 305.733C34.8329 306.426 35.2893 306.951 35.8651 307.307C36.4408 307.663 37.0885 307.841 37.8082 307.841C38.4749 307.841 39.062 307.699 39.5696 307.415C40.081 307.127 40.4787 306.722 40.7628 306.199C41.0507 305.672 41.1946 305.053 41.1946 304.341L41.6264 304.432H38.1264V303.182H42.5582V304.432C42.5582 305.39 42.3537 306.223 41.9446 306.932C41.5393 307.64 40.9787 308.189 40.2628 308.58C39.5507 308.966 38.7325 309.159 37.8082 309.159C36.7779 309.159 35.8726 308.917 35.0923 308.432C34.3158 307.947 33.7098 307.258 33.2741 306.364C32.8423 305.47 32.6264 304.409 32.6264 303.182C32.6264 302.261 32.7495 301.434 32.9957 300.699C33.2457 299.96 33.598 299.331 34.0526 298.812C34.5071 298.294 35.045 297.896 35.6662 297.619C36.2874 297.343 36.9711 297.205 37.7173 297.205C38.331 297.205 38.9029 297.297 39.4332 297.483C39.9673 297.665 40.4427 297.924 40.8594 298.261C41.2798 298.595 41.6302 298.994 41.9105 299.46C42.1908 299.922 42.384 300.436 42.4901 301H41.0355Z" fill="#F5F5F5"/>
</g>
<g filter="url(#filter19_i_1_127)">
<mask id="path-52-inside-13_1_127" fill="white">
<path d="M4 187C4 182.582 7.58172 179 12 179H46C50.4183 179 54 182.582 54 187V221C54 225.418 50.4183 229 46 229H12C7.58172 229 4 225.418 4 221V187Z"/>
</mask>
<path d="M4 187C4 182.582 7.58172 179 12 179H46C50.4183 179 54 182.582 54 187V221C54 225.418 50.4183 229 46 229H12C7.58172 229 4 225.418 4 221V187Z" fill="#2C2C2C"/>
<path d="M12 180H46V178H12V180ZM53 187V221H55V187H53ZM46 228H12V230H46V228ZM5 221V187H3V221H5ZM12 228C8.13401 228 5 224.866 5 221H3C3 225.971 7.02944 230 12 230V228ZM53 221C53 224.866 49.866 228 46 228V230C50.9706 230 55 225.971 55 221H53ZM46 180C49.866 180 53 183.134 53 187H55C55 182.029 50.9706 178 46 178V180ZM12 178C7.02944 178 3 182.029 3 187H5C5 183.134 8.13401 180 12 180V178Z" fill="#2C2C2C" mask="url(#path-52-inside-13_1_127)"/>
<path d="M16.3864 210H14.9091L19.1818 198.364H20.6364L24.9091 210H23.4318L19.9545 200.205H19.8636L16.3864 210ZM16.9318 205.455H22.8864V206.705H16.9318V205.455ZM31.5398 203.557V204.807H26.4489V203.557H31.5398ZM34.5582 210H33.081L37.3537 198.364H38.8082L43.081 210H41.6037L38.1264 200.205H38.0355L34.5582 210ZM35.1037 205.455H41.0582V206.705H35.1037V205.455Z" fill="#F5F5F5"/>
</g>
<g filter="url(#filter20_i_1_127)">
<rect x="2.7324" y="142.899" width="50.5352" height="24.1552" rx="12.0776" fill="#3C3C43"/>
</g>
<g filter="url(#filter21_i_1_127)">
<rect x="2.7324" y="240.581" width="50.5352" height="24.1552" rx="12.0776" fill="#3C3C43"/>
</g>
<g filter="url(#filter22_i_1_127)">
<rect x="2.7324" y="338.264" width="50.5352" height="24.1552" rx="12.0776" fill="#3C3C43"/>
</g>
<g filter="url(#filter23_i_1_127)">
<rect x="2.7324" y="435.946" width="50.5352" height="24.1552" rx="12.0776" fill="#3C3C43"/>
</g>
<g filter="url(#filter24_i_1_127)">
<mask id="path-59-inside-14_1_127" fill="white">
<path d="M4 88C4 83.5817 7.58172 80 12 80H46C50.4183 80 54 83.5817 54 88V122C54 126.418 50.4183 130 46 130H12C7.58172 130 4 126.418 4 122V88Z"/>
</mask>
<path d="M4 88C4 83.5817 7.58172 80 12 80H46C50.4183 80 54 83.5817 54 88V122C54 126.418 50.4183 130 46 130H12C7.58172 130 4 126.418 4 122V88Z" fill="#2C2C2C"/>
<path d="M12 81H46V79H12V81ZM53 88V122H55V88H53ZM46 129H12V131H46V129ZM5 122V88H3V122H5ZM12 129C8.13401 129 5 125.866 5 122H3C3 126.971 7.02944 131 12 131V129ZM53 122C53 125.866 49.866 129 46 129V131C50.9706 131 55 126.971 55 122H53ZM46 81C49.866 81 53 84.134 53 88H55C55 83.0294 50.9706 79 46 79V81ZM12 79C7.02944 79 3 83.0294 3 88H5C5 84.134 8.13401 81 12 81V79Z" fill="#2C2C2C" mask="url(#path-59-inside-14_1_127)"/>
<path d="M6.40909 99.3636H8.09091L12.0455 109.023H12.1818L16.1364 99.3636H17.8182V111H16.5V102.159H16.3864L12.75 111H11.4773L7.84091 102.159H7.72727V111H6.40909V99.3636ZM20.6435 111V99.3636H27.6662V100.614H22.0526V104.545H27.3026V105.795H22.0526V109.75H27.7571V111H20.6435ZM39.4332 99.3636V111H38.0696L31.7287 101.864H31.6151V111H30.206V99.3636H31.5696L37.9332 108.523H38.0469V99.3636H39.4332ZM49.8892 99.3636H51.2983V107.068C51.2983 107.864 51.1108 108.574 50.7358 109.199C50.3646 109.82 49.84 110.311 49.1619 110.67C48.4839 111.027 47.6884 111.205 46.7756 111.205C45.8627 111.205 45.0672 111.027 44.3892 110.67C43.7112 110.311 43.1847 109.82 42.8097 109.199C42.4384 108.574 42.2528 107.864 42.2528 107.068V99.3636H43.6619V106.955C43.6619 107.523 43.7869 108.028 44.0369 108.472C44.2869 108.911 44.643 109.258 45.1051 109.511C45.571 109.761 46.1278 109.886 46.7756 109.886C47.4233 109.886 47.9801 109.761 48.446 109.511C48.9119 109.258 49.268 108.911 49.5142 108.472C49.7642 108.028 49.8892 107.523 49.8892 106.955V99.3636Z" fill="#F5F5F5"/>
</g>
<defs>
<filter id="filter0_i_1_127" x="584.732" y="145.899" width="50.5352" height="28.1552" filterUnits="userSpaceOnUse" color-interpolation-filters="sRGB">
<feFlood flood-opacity="0" result="BackgroundImageFix"/>
<feBlend mode="normal" in="SourceGraphic" in2="BackgroundImageFix" result="shape"/>
<feColorMatrix in="SourceAlpha" type="matrix" values="0 0 0 0 0 0 0 0 0 0 0 0 0 0 0 0 0 0 127 0" result="hardAlpha"/>
<feOffset dy="4"/>
<feGaussianBlur stdDeviation="2"/>
<feComposite in2="hardAlpha" operator="arithmetic" k2="-1" k3="1"/>
<feColorMatrix type="matrix" values="0 0 0 0 0 0 0 0 0 0 0 0 0 0 0 0 0 0 0.25 0"/>
<feBlend mode="normal" in2="shape" result="effect1_innerShadow_1_127"/>
</filter>
<filter id="filter1_i_1_127" x="584.732" y="243.581" width="50.5352" height="28.1552" filterUnits="userSpaceOnUse" color-interpolation-filters="sRGB">
<feFlood flood-opacity="0" result="BackgroundImageFix"/>
<feBlend mode="normal" in="SourceGraphic" in2="BackgroundImageFix" result="shape"/>
<feColorMatrix in="SourceAlpha" type="matrix" values="0 0 0 0 0 0 0 0 0 0 0 0 0 0 0 0 0 0 127 0" result="hardAlpha"/>
<feOffset dy="4"/>
<feGaussianBlur stdDeviation="2"/>
<feComposite in2="hardAlpha" operator="arithmetic" k2="-1" k3="1"/>
<feColorMatrix type="matrix" values="0 0 0 0 0 0 0 0 0 0 0 0 0 0 0 0 0 0 0.25 0"/>
<feBlend mode="normal" in2="shape" result="effect1_innerShadow_1_127"/>
</filter>
<filter id="filter2_i_1_127" x="584.732" y="341.264" width="50.5352" height="28.1552" filterUnits="userSpaceOnUse" color-interpolation-filters="sRGB">
<feFlood flood-opacity="0" result="BackgroundImageFix"/>
<feBlend mode="normal" in="SourceGraphic" in2="BackgroundImageFix" result="shape"/>
<feColorMatrix in="SourceAlpha" type="matrix" values="0 0 0 0 0 0 0 0 0 0 0 0 0 0 0 0 0 0 127 0" result="hardAlpha"/>
<feOffset dy="4"/>
<feGaussianBlur stdDeviation="2"/>
<feComposite in2="hardAlpha" operator="arithmetic" k2="-1" k3="1"/>
<feColorMatrix type="matrix" values="0 0 0 0 0 0 0 0 0 0 0 0 0 0 0 0 0 0 0.25 0"/>
<feBlend mode="normal" in2="shape" result="effect1_innerShadow_1_127"/>
</filter>
<filter id="filter3_i_1_127" x="584.732" y="438.946" width="50.5352" height="28.1552" filterUnits="userSpaceOnUse" color-interpolation-filters="sRGB">
<feFlood flood-opacity="0" result="BackgroundImageFix"/>
<feBlend mode="normal" in="SourceGraphic" in2="BackgroundImageFix" result="shape"/>
<feColorMatrix in="SourceAlpha" type="matrix" values="0 0 0 0 0 0 0 0 0 0 0 0 0 0 0 0 0 0 127 0" result="hardAlpha"/>
<feOffset dy="4"/>
<feGaussianBlur stdDeviation="2"/>
<feComposite in2="hardAlpha" operator="arithmetic" k2="-1" k3="1"/>
<feColorMatrix type="matrix" values="0 0 0 0 0 0 0 0 0 0 0 0 0 0 0 0 0 0 0.25 0"/>
<feBlend mode="normal" in2="shape" result="effect1_innerShadow_1_127"/>
</filter>
<filter id="filter4_i_1_127" x="441.481" y="556.732" width="24.5708" height="54.5352" filterUnits="userSpaceOnUse" color-interpolation-filters="sRGB">
<feFlood flood-opacity="0" result="BackgroundImageFix"/>
<feBlend mode="normal" in="SourceGraphic" in2="BackgroundImageFix" result="shape"/>
<feColorMatrix in="SourceAlpha" type="matrix" values="0 0 0 0 0 0 0 0 0 0 0 0 0 0 0 0 0 0 127 0" result="hardAlpha"/>
<feOffset dy="4"/>
<feGaussianBlur stdDeviation="2"/>
<feComposite in2="hardAlpha" operator="arithmetic" k2="-1" k3="1"/>
<feColorMatrix type="matrix" values="0 0 0 0 0 0 0 0 0 0 0 0 0 0 0 0 0 0 0.25 0"/>
<feBlend mode="normal" in2="shape" result="effect1_innerShadow_1_127"/>
</filter>
<filter id="filter5_i_1_127" x="342.215" y="556.732" width="24.5708" height="54.5352" filterUnits="userSpaceOnUse" color-interpolation-filters="sRGB">
<feFlood flood-opacity="0" result="BackgroundImageFix"/>
<feBlend mode="normal" in="SourceGraphic" in2="BackgroundImageFix" result="shape"/>
<feColorMatrix in="SourceAlpha" type="matrix" values="0 0 0 0 0 0 0 0 0 0 0 0 0 0 0 0 0 0 127 0" result="hardAlpha"/>
<feOffset dy="4"/>
<feGaussianBlur stdDeviation="2"/>
<feComposite in2="hardAlpha" operator="arithmetic" k2="-1" k3="1"/>
<feColorMatrix type="matrix" values="0 0 0 0 0 0 0 0 0 0 0 0 0 0 0 0 0 0 0.25 0"/>
<feBlend mode="normal" in2="shape" result="effect1_innerShadow_1_127"/>
</filter>
<filter id="filter6_i_1_127" x="242.949" y="556.732" width="24.5708" height="54.5352" filterUnits="userSpaceOnUse" color-interpolation-filters="sRGB">
<feFlood flood-opacity="0" result="BackgroundImageFix"/>
<feBlend mode="normal" in="SourceGraphic" in2="BackgroundImageFix" result="shape"/>
<feColorMatrix in="SourceAlpha" type="matrix" values="0 0 0 0 0 0 0 0 0 0 0 0 0 0 0 0 0 0 127 0" result="hardAlpha"/>
<feOffset dy="4"/>
<feGaussianBlur stdDeviation="2"/>
<feComposite in2="hardAlpha" operator="arithmetic" k2="-1" k3="1"/>
<feColorMatrix type="matrix" values="0 0 0 0 0 0 0 0 0 0 0 0 0 0 0 0 0 0 0.25 0"/>
<feBlend mode="normal" in2="shape" result="effect1_innerShadow_1_127"/>
</filter>
<filter id="filter7_i_1_127" x="586" y="80" width="50" height="54" filterUnits="userSpaceOnUse" color-interpolation-filters="sRGB">
<feFlood flood-opacity="0" result="BackgroundImageFix"/>
<feBlend mode="normal" in="SourceGraphic" in2="BackgroundImageFix" result="shape"/>
<feColorMatrix in="SourceAlpha" type="matrix" values="0 0 0 0 0 0 0 0 0 0 0 0 0 0 0 0 0 0 127 0" result="hardAlpha"/>
<feOffset dy="4"/>
<feGaussianBlur stdDeviation="2"/>
<feComposite in2="hardAlpha" operator="arithmetic" k2="-1" k3="1"/>
<feColorMatrix type="matrix" values="0 0 0 0 0 0 0 0 0 0 0 0 0 0 0 0 0 0 0.25 0"/>
<feBlend mode="normal" in2="shape" result="effect1_innerShadow_1_127"/>
</filter>
<filter id="filter8_i_1_127" x="586" y="180" width="50" height="54" filterUnits="userSpaceOnUse" color-interpolation-filters="sRGB">
<feFlood flood-opacity="0" result="BackgroundImageFix"/>
<feBlend mode="normal" in="SourceGraphic" in2="BackgroundImageFix" result="shape"/>
<feColorMatrix in="SourceAlpha" type="matrix" values="0 0 0 0 0 0 0 0 0 0 0 0 0 0 0 0 0 0 127 0" result="hardAlpha"/>
<feOffset dy="4"/>
<feGaussianBlur stdDeviation="2"/>
<feComposite in2="hardAlpha" operator="arithmetic" k2="-1" k3="1"/>
<feColorMatrix type="matrix" values="0 0 0 0 0 0 0 0 0 0 0 0 0 0 0 0 0 0 0.25 0"/>
<feBlend mode="normal" in2="shape" result="effect1_innerShadow_1_127"/>
</filter>
<filter id="filter9_i_1_127" x="586" y="280" width="50" height="54" filterUnits="userSpaceOnUse" color-interpolation-filters="sRGB">
<feFlood flood-opacity="0" result="BackgroundImageFix"/>
<feBlend mode="normal" in="SourceGraphic" in2="BackgroundImageFix" result="shape"/>
<feColorMatrix in="SourceAlpha" type="matrix" values="0 0 0 0 0 0 0 0 0 0 0 0 0 0 0 0 0 0 127 0" result="hardAlpha"/>
<feOffset dy="4"/>
<feGaussianBlur stdDeviation="2"/>
<feComposite in2="hardAlpha" operator="arithmetic" k2="-1" k3="1"/>
<feColorMatrix type="matrix" values="0 0 0 0 0 0 0 0 0 0 0 0 0 0 0 0 0 0 0.25 0"/>
<feBlend mode="normal" in2="shape" result="effect1_innerShadow_1_127"/>
</filter>
<filter id="filter10_i_1_127" x="587" y="375" width="50" height="54" filterUnits="userSpaceOnUse" color-interpolation-filters="sRGB">
<feFlood flood-opacity="0" result="BackgroundImageFix"/>
<feBlend mode="normal" in="SourceGraphic" in2="BackgroundImageFix" result="shape"/>
<feColorMatrix in="SourceAlpha" type="matrix" values="0 0 0 0 0 0 0 0 0 0 0 0 0 0 0 0 0 0 127 0" result="hardAlpha"/>
<feOffset dy="4"/>
<feGaussianBlur stdDeviation="2"/>
<feComposite in2="hardAlpha" operator="arithmetic" k2="-1" k3="1"/>
<feColorMatrix type="matrix" values="0 0 0 0 0 0 0 0 0 0 0 0 0 0 0 0 0 0 0.25 0"/>
<feBlend mode="normal" in2="shape" result="effect1_innerShadow_1_127"/>
</filter>
<filter id="filter11_i_1_127" x="585" y="470" width="50" height="54" filterUnits="userSpaceOnUse" color-interpolation-filters="sRGB">
<feFlood flood-opacity="0" result="BackgroundImageFix"/>
<feBlend mode="normal" in="SourceGraphic" in2="BackgroundImageFix" result="shape"/>
<feColorMatrix in="SourceAlpha" type="matrix" values="0 0 0 0 0 0 0 0 0 0 0 0 0 0 0 0 0 0 127 0" result="hardAlpha"/>
<feOffset dy="4"/>
<feGaussianBlur stdDeviation="2"/>
<feComposite in2="hardAlpha" operator="arithmetic" k2="-1" k3="1"/>
<feColorMatrix type="matrix" values="0 0 0 0 0 0 0 0 0 0 0 0 0 0 0 0 0 0 0.25 0"/>
<feBlend mode="normal" in2="shape" result="effect1_innerShadow_1_127"/>
</filter>
<filter id="filter12_i_1_127" x="178" y="556" width="50" height="54" filterUnits="userSpaceOnUse" color-interpolation-filters="sRGB">
<feFlood flood-opacity="0" result="BackgroundImageFix"/>
<feBlend mode="normal" in="SourceGraphic" in2="BackgroundImageFix" result="shape"/>
<feColorMatrix in="SourceAlpha" type="matrix" values="0 0 0 0 0 0 0 0 0 0 0 0 0 0 0 0 0 0 127 0" result="hardAlpha"/>
<feOffset dy="4"/>
<feGaussianBlur stdDeviation="2"/>
<feComposite in2="hardAlpha" operator="arithmetic" k2="-1" k3="1"/>
<feColorMatrix type="matrix" values="0 0 0 0 0 0 0 0 0 0 0 0 0 0 0 0 0 0 0.25 0"/>
<feBlend mode="normal" in2="shape" result="effect1_innerShadow_1_127"/>
</filter>
<filter id="filter13_i_1_127" x="280" y="557" width="50" height="54" filterUnits="userSpaceOnUse" color-interpolation-filters="sRGB">
<feFlood flood-opacity="0" result="BackgroundImageFix"/>
<feBlend mode="normal" in="SourceGraphic" in2="BackgroundImageFix" result="shape"/>
<feColorMatrix in="SourceAlpha" type="matrix" values="0 0 0 0 0 0 0 0 0 0 0 0 0 0 0 0 0 0 127 0" result="hardAlpha"/>
<feOffset dy="4"/>
<feGaussianBlur stdDeviation="2"/>
<feComposite in2="hardAlpha" operator="arithmetic" k2="-1" k3="1"/>
<feColorMatrix type="matrix" values="0 0 0 0 0 0 0 0 0 0 0 0 0 0 0 0 0 0 0.25 0"/>
<feBlend mode="normal" in2="shape" result="effect1_innerShadow_1_127"/>
</filter>
<filter id="filter14_i_1_127" x="381" y="556" width="50" height="54" filterUnits="userSpaceOnUse" color-interpolation-filters="sRGB">
<feFlood flood-opacity="0" result="BackgroundImageFix"/>
<feBlend mode="normal" in="SourceGraphic" in2="BackgroundImageFix" result="shape"/>
<feColorMatrix in="SourceAlpha" type="matrix" values="0 0 0 0 0 0 0 0 0 0 0 0 0 0 0 0 0 0 127 0" result="hardAlpha"/>
<feOffset dy="4"/>
<feGaussianBlur stdDeviation="2"/>
<feComposite in2="hardAlpha" operator="arithmetic" k2="-1" k3="1"/>
<feColorMatrix type="matrix" values="0 0 0 0 0 0 0 0 0 0 0 0 0 0 0 0 0 0 0.25 0"/>
<feBlend mode="normal" in2="shape" result="effect1_innerShadow_1_127"/>
</filter>
<filter id="filter15_i_1_127" x="481" y="556" width="50" height="54" filterUnits="userSpaceOnUse" color-interpolation-filters="sRGB">
<feFlood flood-opacity="0" result="BackgroundImageFix"/>
<feBlend mode="normal" in="SourceGraphic" in2="BackgroundImageFix" result="shape"/>
<feColorMatrix in="SourceAlpha" type="matrix" values="0 0 0 0 0 0 0 0 0 0 0 0 0 0 0 0 0 0 127 0" result="hardAlpha"/>
<feOffset dy="4"/>
<feGaussianBlur stdDeviation="2"/>
<feComposite in2="hardAlpha" operator="arithmetic" k2="-1" k3="1"/>
<feColorMatrix type="matrix" values="0 0 0 0 0 0 0 0 0 0 0 0 0 0 0 0 0 0 0.25 0"/>
<feBlend mode="normal" in2="shape" result="effect1_innerShadow_1_127"/>
</filter>
<filter id="filter16_i_1_127" x="4" y="467" width="50" height="54" filterUnits="userSpaceOnUse" color-interpolation-filters="sRGB">
<feFlood flood-opacity="0" result="BackgroundImageFix"/>
<feBlend mode="normal" in="SourceGraphic" in2="BackgroundImageFix" result="shape"/>
<feColorMatrix in="SourceAlpha" type="matrix" values="0 0 0 0 0 0 0 0 0 0 0 0 0 0 0 0 0 0 127 0" result="hardAlpha"/>
<feOffset dy="4"/>
<feGaussianBlur stdDeviation="2"/>
<feComposite in2="hardAlpha" operator="arithmetic" k2="-1" k3="1"/>
<feColorMatrix type="matrix" values="0 0 0 0 0 0 0 0 0 0 0 0 0 0 0 0 0 0 0.25 0"/>
<feBlend mode="normal" in2="shape" result="effect1_innerShadow_1_127"/>
</filter>
<filter id="filter17_i_1_127" x="4" y="373" width="50" height="54" filterUnits="userSpaceOnUse" color-interpolation-filters="sRGB">
<feFlood flood-opacity="0" result="BackgroundImageFix"/>
<feBlend mode="normal" in="SourceGraphic" in2="BackgroundImageFix" result="shape"/>
<feColorMatrix in="SourceAlpha" type="matrix" values="0 0 0 0 0 0 0 0 0 0 0 0 0 0 0 0 0 0 127 0" result="hardAlpha"/>
<feOffset dy="4"/>
<feGaussianBlur stdDeviation="2"/>
<feComposite in2="hardAlpha" operator="arithmetic" k2="-1" k3="1"/>
<feColorMatrix type="matrix" values="0 0 0 0 0 0 0 0 0 0 0 0 0 0 0 0 0 0 0.25 0"/>
<feBlend mode="normal" in2="shape" result="effect1_innerShadow_1_127"/>
</filter>
<filter id="filter18_i_1_127" x="4" y="278" width="50" height="54" filterUnits="userSpaceOnUse" color-interpolation-filters="sRGB">
<feFlood flood-opacity="0" result="BackgroundImageFix"/>
<feBlend mode="normal" in="SourceGraphic" in2="BackgroundImageFix" result="shape"/>
<feColorMatrix in="SourceAlpha" type="matrix" values="0 0 0 0 0 0 0 0 0 0 0 0 0 0 0 0 0 0 127 0" result="hardAlpha"/>
<feOffset dy="4"/>
<feGaussianBlur stdDeviation="2"/>
<feComposite in2="hardAlpha" operator="arithmetic" k2="-1" k3="1"/>
<feColorMatrix type="matrix" values="0 0 0 0 0 0 0 0 0 0 0 0 0 0 0 0 0 0 0.25 0"/>
<feBlend mode="normal" in2="shape" result="effect1_innerShadow_1_127"/>
</filter>
<filter id="filter19_i_1_127" x="4" y="179" width="50" height="54" filterUnits="userSpaceOnUse" color-interpolation-filters="sRGB">
<feFlood flood-opacity="0" result="BackgroundImageFix"/>
<feBlend mode="normal" in="SourceGraphic" in2="BackgroundImageFix" result="shape"/>
<feColorMatrix in="SourceAlpha" type="matrix" values="0 0 0 0 0 0 0 0 0 0 0 0 0 0 0 0 0 0 127 0" result="hardAlpha"/>
<feOffset dy="4"/>
<feGaussianBlur stdDeviation="2"/>
<feComposite in2="hardAlpha" operator="arithmetic" k2="-1" k3="1"/>
<feColorMatrix type="matrix" values="0 0 0 0 0 0 0 0 0 0 0 0 0 0 0 0 0 0 0.25 0"/>
<feBlend mode="normal" in2="shape" result="effect1_innerShadow_1_127"/>
</filter>
<filter id="filter20_i_1_127" x="2.7324" y="142.899" width="50.5352" height="28.1552" filterUnits="userSpaceOnUse" color-interpolation-filters="sRGB">
<feFlood flood-opacity="0" result="BackgroundImageFix"/>
<feBlend mode="normal" in="SourceGraphic" in2="BackgroundImageFix" result="shape"/>
<feColorMatrix in="SourceAlpha" type="matrix" values="0 0 0 0 0 0 0 0 0 0 0 0 0 0 0 0 0 0 127 0" result="hardAlpha"/>
<feOffset dy="4"/>
<feGaussianBlur stdDeviation="2"/>
<feComposite in2="hardAlpha" operator="arithmetic" k2="-1" k3="1"/>
<feColorMatrix type="matrix" values="0 0 0 0 0 0 0 0 0 0 0 0 0 0 0 0 0 0 0.25 0"/>
<feBlend mode="normal" in2="shape" result="effect1_innerShadow_1_127"/>
</filter>
<filter id="filter21_i_1_127" x="2.7324" y="240.581" width="50.5352" height="28.1552" filterUnits="userSpaceOnUse" color-interpolation-filters="sRGB">
<feFlood flood-opacity="0" result="BackgroundImageFix"/>
<feBlend mode="normal" in="SourceGraphic" in2="BackgroundImageFix" result="shape"/>
<feColorMatrix in="SourceAlpha" type="matrix" values="0 0 0 0 0 0 0 0 0 0 0 0 0 0 0 0 0 0 127 0" result="hardAlpha"/>
<feOffset dy="4"/>
<feGaussianBlur stdDeviation="2"/>
<feComposite in2="hardAlpha" operator="arithmetic" k2="-1" k3="1"/>
<feColorMatrix type="matrix" values="0 0 0 0 0 0 0 0 0 0 0 0 0 0 0 0 0 0 0.25 0"/>
<feBlend mode="normal" in2="shape" result="effect1_innerShadow_1_127"/>
</filter>
<filter id="filter22_i_1_127" x="2.7324" y="338.264" width="50.5352" height="28.1552" filterUnits="userSpaceOnUse" color-interpolation-filters="sRGB">
<feFlood flood-opacity="0" result="BackgroundImageFix"/>
<feBlend mode="normal" in="SourceGraphic" in2="BackgroundImageFix" result="shape"/>
<feColorMatrix in="SourceAlpha" type="matrix" values="0 0 0 0 0 0 0 0 0 0 0 0 0 0 0 0 0 0 127 0" result="hardAlpha"/>
<feOffset dy="4"/>
<feGaussianBlur stdDeviation="2"/>
<feComposite in2="hardAlpha" operator="arithmetic" k2="-1" k3="1"/>
<feColorMatrix type="matrix" values="0 0 0 0 0 0 0 0 0 0 0 0 0 0 0 0 0 0 0.25 0"/>
<feBlend mode="normal" in2="shape" result="effect1_innerShadow_1_127"/>
</filter>
<filter id="filter23_i_1_127" x="2.7324" y="435.946" width="50.5352" height="28.1552" filterUnits="userSpaceOnUse" color-interpolation-filters="sRGB">
<feFlood flood-opacity="0" result="BackgroundImageFix"/>
<feBlend mode="normal" in="SourceGraphic" in2="BackgroundImageFix" result="shape"/>
<feColorMatrix in="SourceAlpha" type="matrix" values="0 0 0 0 0 0 0 0 0 0 0 0 0 0 0 0 0 0 127 0" result="hardAlpha"/>
<feOffset dy="4"/>
<feGaussianBlur stdDeviation="2"/>
<feComposite in2="hardAlpha" operator="arithmetic" k2="-1" k3="1"/>
<feColorMatrix type="matrix" values="0 0 0 0 0 0 0 0 0 0 0 0 0 0 0 0 0 0 0.25 0"/>
<feBlend mode="normal" in2="shape" result="effect1_innerShadow_1_127"/>
</filter>
<filter id="filter24_i_1_127" x="4" y="80" width="50" height="54" filterUnits="userSpaceOnUse" color-interpolation-filters="sRGB">
<feFlood flood-opacity="0" result="BackgroundImageFix"/>
<feBlend mode="normal" in="SourceGraphic" in2="BackgroundImageFix" result="shape"/>
<feColorMatrix in="SourceAlpha" type="matrix" values="0 0 0 0 0 0 0 0 0 0 0 0 0 0 0 0 0 0 127 0" result="hardAlpha"/>
<feOffset dy="4"/>
<feGaussianBlur stdDeviation="2"/>
<feComposite in2="hardAlpha" operator="arithmetic" k2="-1" k3="1"/>
<feColorMatrix type="matrix" values="0 0 0 0 0 0 0 0 0 0 0 0 0 0 0 0 0 0 0.25 0"/>
<feBlend mode="normal" in2="shape" result="effect1_innerShadow_1_127"/>
</filter>
</defs>
</svg>
